<svg xmlns="http://www.w3.org/2000/svg" width="300" height="299.163"><defs><linearGradient id="a" x1="1" y1=".714" x2="0" y2=".362" gradientUnits="objectBoundingBox"><stop offset="0" stop-color="#e5364b"/><stop offset="1" stop-color="#ef5365"/></linearGradient><filter id="b" x="0" y="0" width="300" height="299.163" filterUnits="userSpaceOnUse"><feOffset/><feGaussianBlur stdDeviation="25" result="c"/><feFlood flood-color="#e5364b" flood-opacity=".502"/><feComposite operator="in" in2="c"/><feComposite in="SourceGraphic"/></filter></defs><g filter="url(#b)"><path d="M85.542 1.632C143.532 3.28 150 33.579 150 75s-29.846 70.67-81.635 75.351S0 116.421 0 75 27.552-.017 85.542 1.632z" transform="translate(75 73.43)" fill="url(#a)"/></g><path d="M165.403 139.766a5.262 5.262 0 006.617.607c6.2-4.368 8.892-10.12 8.059-15.232-.8-4.923-2.823-5.324-4.477-4.688a4 4 0 00-2.536 3.225c-.465 3.581-3 7.059-7.118 10.073a3.907 3.907 0 00-.545 6.014zm-9.714 6.707a10.169 10.169 0 00-9.577-2.6h0c-13.785 3.3-19.158 7.009-16.121 15.534 2.355 6.61-7.224 11.126-11.65 12.823a4.561 4.561 0 00-3.108 3.718c-.413 5.446 11.082 1.2 11.082 1.2s16.821-5.043 13.784-13.569c-3.093-8.682 2.538-12.371 16.893-15.716l.012-.03z" opacity=".5" fill="none" stroke="#000" stroke-linecap="round" stroke-linejoin="round" stroke-width="5"/></svg>