<svg xmlns="http://www.w3.org/2000/svg" width="163.801" height="41.105"><defs><linearGradient id="a" y1=".5" x2="1" y2=".5" gradientUnits="objectBoundingBox"><stop offset="0" stop-color="#e5364b"/><stop offset="1" stop-color="#00e6ff"/></linearGradient><linearGradient id="b" y1=".5" x2="1" y2=".5" gradientUnits="objectBoundingBox"><stop offset="0" stop-color="#1acb97"/><stop offset="1" stop-color="#e5364b"/></linearGradient></defs><path d="M19.589 19.389a9.982 9.982 0 01-2.909 6.752 9.589 9.589 0 01-6.858 2.856 9.6 9.6 0 01-7.02-2.963 10.153 10.153 0 01-2.8-7.072A10.04 10.04 0 0110.034 8.924a10.332 10.332 0 014.8 1.2 2.155 2.155 0 01.855 2.91 2.123 2.123 0 01-2.883.853 5.966 5.966 0 00-2.776-.72 5.8 5.8 0 00-5.764 5.791 5.835 5.835 0 001.6 4.11 5.428 5.428 0 003.951 1.681 5.445 5.445 0 005.2-3.87h-4.875a1.873 1.873 0 01-1.868-1.868 1.89 1.89 0 011.868-1.868h7.419a2.1 2.1 0 012.028 2.246zm7.902 9.661a5.9 5.9 0 01-5.9-5.9v-5.551a2.119 2.119 0 012.135-2.108 2.112 2.112 0 012.108 2.108v5.551a1.663 1.663 0 001.655 1.655 1.663 1.663 0 001.655-1.655v-5.551a2.112 2.112 0 012.108-2.108 2.119 2.119 0 012.135 2.108v5.551a5.9 5.9 0 01-5.896 5.9zm27.062-7.82v5.472a2.158 2.158 0 01-2.135 2.134 2.159 2.159 0 01-2.135-2.134V21.23a1.617 1.617 0 00-1.627-1.628 1.635 1.635 0 00-1.628 1.628v5.472a2.141 2.141 0 01-2.135 2.134 2.159 2.159 0 01-2.136-2.134V21.23a1.635 1.635 0 00-1.628-1.628 1.618 1.618 0 00-1.628 1.628v5.472a2.141 2.141 0 01-2.135 2.134 2.136 2.136 0 01-2.108-2.134v-9.178a2 2 0 012-2.028 1.938 1.938 0 011.28.48 5.622 5.622 0 012.589-.614 6.014 6.014 0 013.766 1.362 6 6 0 013.763-1.361 5.911 5.911 0 015.897 5.867zm21.166 0v5.472a2.158 2.158 0 01-2.135 2.134 2.159 2.159 0 01-2.135-2.134V21.23a1.617 1.617 0 00-1.627-1.628 1.635 1.635 0 00-1.628 1.628v5.472a2.141 2.141 0 01-2.135 2.134 2.159 2.159 0 01-2.136-2.134V21.23a1.635 1.635 0 00-1.628-1.628 1.618 1.618 0 00-1.628 1.628v5.472a2.141 2.141 0 01-2.135 2.134 2.136 2.136 0 01-2.108-2.134v-9.178a2 2 0 012-2.028 1.938 1.938 0 011.28.48 5.622 5.622 0 012.589-.614 6.014 6.014 0 013.766 1.362 6.007 6.007 0 013.763-1.361 5.911 5.911 0 015.897 5.867zm4.006 7.606a2.141 2.141 0 01-2.135-2.134v-9.235a2.142 2.142 0 012.135-2.135 2.142 2.142 0 012.136 2.135v9.235a2.142 2.142 0 01-2.136 2.134zm13.958-2.081a7.124 7.124 0 01-9.154.987 2.128 2.128 0 01-.561-2.962 2.141 2.141 0 011.6-.934 5.281 5.281 0 012.134.693 2.5 2.5 0 002.749-.586 1.861 1.861 0 00-.587-2.963c-.96-.56-2.881-.747-4.3-2.161a5.682 5.682 0 01-1.652-4.083 5.749 5.749 0 013.016-4.965 6.488 6.488 0 016.458.027 2.189 2.189 0 01.774 2.936c-.64 1.014-1.735 1.227-3.069.693-1.628-.667-3.362.561-2.855 1.842.426 1.094 2.535 1.388 3.6 1.922a6.275 6.275 0 013.363 5.017 5.979 5.979 0 01-1.516 4.537zm15.266-5.498v5.445a2.141 2.141 0 01-2.134 2.134 2.142 2.142 0 01-2.136-2.134v-5.445a1.663 1.663 0 00-1.654-1.655 1.658 1.658 0 00-1.628 1.655v5.445a2.141 2.141 0 01-2.135 2.134 2.147 2.147 0 01-2.162-2.134V13.224a2.153 2.153 0 012.162-2.162 2.147 2.147 0 012.135 2.162v2.322a6.664 6.664 0 011.628-.214 5.912 5.912 0 015.924 5.925zm12.332 2.509h-7.1a3.8 3.8 0 005.1 1.121 1.8 1.8 0 012.482.64 1.849 1.849 0 01-.641 2.509 7.559 7.559 0 01-3.816 1.014 7.17 7.17 0 01-6.539-3.95 6.93 6.93 0 01-.08-5.551 6.77 6.77 0 016.272-4.163 6.8 6.8 0 016.753 5.978c.158 1.601-.91 2.402-2.431 2.402zm-1.627-3.042a2.819 2.819 0 00-2.723-1.975 2.842 2.842 0 00-2.719 1.975zm7.926 8.112a2.141 2.141 0 01-2.134-2.134V13.224a2.141 2.141 0 012.134-2.135 2.142 2.142 0 012.132 2.135v13.478a2.142 2.142 0 01-2.132 2.134zm11.932-2.134a2.142 2.142 0 01-2.136 2.134h-.4a5.37 5.37 0 01-5.391-5.577v-9.875a2.142 2.142 0 012.135-2.135 2.142 2.142 0 012.136 2.135v2.109h1.948a1.857 1.857 0 011.868 1.868 1.851 1.851 0 01-1.868 1.841h-1.948v4.057a1.158 1.158 0 001.12 1.307h.4a2.142 2.142 0 012.136 2.136zm11.956-2.936h-7.1a3.8 3.8 0 005.1 1.121 1.8 1.8 0 012.482.64 1.849 1.849 0 01-.64 2.509 7.563 7.563 0 01-3.817 1.014 7.171 7.171 0 01-6.539-3.95 6.934 6.934 0 01-.08-5.551 6.771 6.771 0 016.273-4.163 6.8 6.8 0 016.752 5.978c.157 1.601-.91 2.402-2.431 2.402zm-1.628-3.042a2.817 2.817 0 00-2.723-1.975 2.841 2.841 0 00-2.721 1.975zm13.959-3.1a2.2 2.2 0 01-2.242 2.029 1.687 1.687 0 00-1.708 1.628v5.443a2.1 2.1 0 01-2.109 2.108 2.1 2.1 0 01-2.108-2.108v-9.23a2 2 0 012-2 2.022 2.022 0 011.334.506 6.3 6.3 0 012.829-.586 2.083 2.083 0 012.004 2.21zM81.577 9.637a1.378 1.378 0 00-1.852.137 1.377 1.377 0 00-1.851-.137 1.384 1.384 0 00-.1 2.024l1.6 1.635a.481.481 0 00.344.145.477.477 0 00.344-.144l1.605-1.635a1.385 1.385 0 00-.09-2.025z" fill="#fff"/><path d="M119.05-45.283a2 2 0 01-1.872-1.3 2 2 0 011.167-2.576l22.132-8.334a9.839 9.839 0 017.035.031l20.508 8.322a2 2 0 011.1 2.605 2 2 0 01-2.6 1.1l-20.478-8.31a5.751 5.751 0 00-4.15-.006l-22.133 8.334a1.982 1.982 0 01-.709.134z" fill="url(#a)" transform="translate(-7.088 58.124)"/><path d="M57.863-17.019a42.608 42.608 0 01-12.909-1.891c-15.457-4.915-34.176.918-34.364.977a1.922 1.922 0 01-2.416-1.323 2.012 2.012 0 011.278-2.5c.81-.258 20.018-6.263 36.639-.978 14.934 4.748 31.521-2 31.687-2.065a1.913 1.913 0 012.514 1.111 2.024 2.024 0 01-1.073 2.6 61.145 61.145 0 01-21.356 4.069z" fill="url(#b)" transform="translate(-7.088 58.124)"/></svg>