<svg xmlns="http://www.w3.org/2000/svg" width="58.5" height="51.188"><path d="M53.016 25.594h-9.141v-7.313a7.319 7.319 0 017.313-7.312h.912a2.736 2.736 0 002.742-2.742V2.742A2.736 2.736 0 0052.1 0h-.914a18.276 18.276 0 00-18.28 18.281V45.7a5.486 5.486 0 005.484 5.484h14.626A5.486 5.486 0 0058.5 45.7V31.078a5.486 5.486 0 00-5.484-5.484zm-32.906 0h-9.141v-7.313a7.319 7.319 0 017.313-7.312h.918a2.736 2.736 0 002.742-2.742V2.742A2.736 2.736 0 0019.2 0h-.914A18.276 18.276 0 000 18.281V45.7a5.486 5.486 0 005.484 5.484h14.625a5.486 5.486 0 005.485-5.484V31.078a5.486 5.486 0 00-5.485-5.484z" fill="#fff" opacity=".15"/></svg>