<svg xmlns="http://www.w3.org/2000/svg" xmlns:xlink="http://www.w3.org/1999/xlink" width="300" height="299.163" viewBox="0 0 300 299.163"><defs><linearGradient id="a" x1="1" y1="0.714" x2="0" y2="0.362" gradientUnits="objectBoundingBox"><stop offset="0" stop-color="#e5364b"/><stop offset="1" stop-color="#ef5365"/></linearGradient><filter id="b" x="0" y="0" width="300" height="299.163" filterUnits="userSpaceOnUse"><feOffset input="SourceAlpha"/><feGaussianBlur stdDeviation="25" result="c"/><feFlood flood-color="#e5364b" flood-opacity="0.502"/><feComposite operator="in" in2="c"/><feComposite in="SourceGraphic"/></filter></defs><g transform="translate(56 75)"><g transform="matrix(1, 0, 0, 1, -56, -75)" filter="url(#b)"><path d="M85.542,1.632C143.532,3.28,150,33.579,150,75s-29.846,70.67-81.635,75.351S0,116.421,0,75,27.552-.017,85.542,1.632Z" transform="translate(75 73.43)" fill="url(#a)"/></g><g transform="translate(59.222 45.221)" opacity="0.5"><path d="M244.1,192.252a5.262,5.262,0,0,0,6.617.607c6.2-4.368,8.892-10.12,8.059-15.232-.8-4.923-2.823-5.324-4.477-4.688a4,4,0,0,0-2.536,3.225c-.465,3.581-3,7.059-7.118,10.073a3.907,3.907,0,0,0-.545,6.014Z" transform="translate(-193.919 -172.707)" fill="none" stroke="#000" stroke-linecap="round" stroke-linejoin="round" stroke-width="5"/><path d="M243.124,194.525a10.169,10.169,0,0,0-9.577-2.6h0c-13.785,3.3-19.158,7.009-16.121,15.534,2.355,6.61-7.224,11.126-11.65,12.823A4.561,4.561,0,0,0,202.668,224c-.413,5.446,11.082,1.2,11.082,1.2s16.821-5.043,13.784-13.569c-3.093-8.682,2.538-12.371,16.893-15.716l.012-.03Z" transform="translate(-202.657 -168.273)" fill="none" stroke="#000" stroke-linecap="round" stroke-linejoin="round" stroke-width="5"/></g></g></svg>