<svg xmlns="http://www.w3.org/2000/svg" xmlns:xlink="http://www.w3.org/1999/xlink" width="301" height="302.999" viewBox="0 0 301 302.999"><defs><linearGradient id="a" y1="0.278" x2="1" y2="0.869" gradientUnits="objectBoundingBox"><stop offset="0" stop-color="#00cea9"/><stop offset="1" stop-color="#00d092"/></linearGradient><filter id="b" x="0" y="0" width="301" height="302.999" filterUnits="userSpaceOnUse"><feOffset input="SourceAlpha"/><feGaussianBlur stdDeviation="25" result="c"/><feFlood flood-color="#1acb97" flood-opacity="0.502"/><feComposite operator="in" in2="c"/><feComposite in="SourceGraphic"/></filter></defs><g transform="translate(61 75)"><g transform="matrix(1, 0, 0, 1, -61, -75)" filter="url(#b)"><path d="M68.453,0C130.324,15.719,151,33.579,151,75s-10.135,74.524-75.5,75S0,116.421,0,75,6.583-15.719,68.453,0Z" transform="translate(75 77.99)" fill="url(#a)"/></g><g transform="translate(44.823 44.164)" opacity="0.5"><path d="M99.508,228.543c0-14.016,10.329-25.377,23.07-25.377s23.069,11.361,23.069,25.377" transform="translate(-71.047 -163.543)" fill="none" stroke="#000" stroke-miterlimit="10" stroke-width="5"/><path d="M95.78,174.547,79.7,199.088a3.206,3.206,0,0,0,.131,3.694l-1.561,2.385a1.6,1.6,0,0,0,.462,2.215l15.171,9.938a3.734,3.734,0,0,0,5.169-1.077L117.2,188.576a1.6,1.6,0,0,0-.461-2.215L98,174.084A1.6,1.6,0,0,0,95.78,174.547Zm-.12,40.1-13.833-9.061.585-.892,13.833,9.061a.534.534,0,1,1-.585.892Zm17.984-26.481L98.424,211.4a3.96,3.96,0,0,0-.425-.325l-15.617-10.23,15.2-23.2Zm-19.7,15.472,4.97-7.585a.8.8,0,0,0-.232-1.107l-5.354-3.508a.8.8,0,0,0-1.109.23l-4.968,7.585a.8.8,0,0,0,.23,1.109l5.355,3.508A.8.8,0,0,0,93.944,203.634ZM90.5,199.15l2.923-4.463,2.231,1.462-2.923,4.461Zm6.348,7.346-1.339-.877a.8.8,0,0,1-.23-1.109l4.968-7.585a.8.8,0,0,1,1.107-.23l1.339.877a.8.8,0,0,1,.23,1.107l-4.968,7.585A.8.8,0,0,1,96.853,206.5Zm7.014-10.71-1.338-.877a.8.8,0,0,1-.232-1.107l3.8-5.8a.8.8,0,0,1,1.107-.23l1.339.876a.8.8,0,0,1,.23,1.109l-3.8,5.8A.8.8,0,0,1,103.867,195.786Zm-8.031-5.26-1.339-.877a.8.8,0,0,1-.23-1.109l3.8-5.8a.8.8,0,0,1,1.107-.23l1.339.877a.8.8,0,0,1,.23,1.107l-3.8,5.8A.8.8,0,0,1,95.836,190.526Zm4.015,2.629-1.338-.877a.8.8,0,0,1-.232-1.107l3.8-5.8a.8.8,0,0,1,1.107-.23l1.339.877a.8.8,0,0,1,.23,1.107l-3.8,5.8A.8.8,0,0,1,99.851,193.155Z" transform="translate(-78.011 -173.822)"/><circle cx="5.323" cy="5.323" r="5.323" transform="translate(22.212 30.497)" fill="none" stroke="#000" stroke-miterlimit="10" stroke-width="4"/><circle cx="16.25" cy="16.25" r="16.25" transform="translate(42.312 3.225)" fill="none" stroke="#000" stroke-miterlimit="10" stroke-width="5"/><circle cx="3.068" cy="3.068" r="3.068" transform="translate(50.23 12.002)"/><circle cx="3.068" cy="3.068" r="3.068" transform="translate(61.751 13.324)"/><ellipse cx="4.907" cy="7.449" rx="4.907" ry="7.449" transform="translate(49.62 28.257) rotate(-77.126)"/></g></g></svg>