<svg xmlns="http://www.w3.org/2000/svg" xmlns:xlink="http://www.w3.org/1999/xlink" width="163.801" height="41.105" viewBox="0 0 163.801 41.105"><defs><linearGradient id="a" y1="0.5" x2="1" y2="0.5" gradientUnits="objectBoundingBox"><stop offset="0" stop-color="#e5364b"/><stop offset="1" stop-color="#00e6ff"/></linearGradient><linearGradient id="b" y1="0.5" x2="1" y2="0.5" gradientUnits="objectBoundingBox"><stop offset="0" stop-color="#1acb97"/><stop offset="1" stop-color="#e5364b"/></linearGradient></defs><g transform="translate(-7.088 58.124)"><path d="M26.677-38.735a9.982,9.982,0,0,1-2.909,6.752,9.589,9.589,0,0,1-6.858,2.856A9.6,9.6,0,0,1,9.89-32.09a10.153,10.153,0,0,1-2.8-7.072A10.04,10.04,0,0,1,17.122-49.2a10.332,10.332,0,0,1,4.8,1.2,2.155,2.155,0,0,1,.855,2.91,2.123,2.123,0,0,1-2.883.853,5.966,5.966,0,0,0-2.776-.72,5.8,5.8,0,0,0-5.764,5.791,5.835,5.835,0,0,0,1.6,4.11,5.428,5.428,0,0,0,3.951,1.681,5.445,5.445,0,0,0,5.2-3.87H17.23a1.873,1.873,0,0,1-1.868-1.868,1.89,1.89,0,0,1,1.868-1.868h7.419A2.1,2.1,0,0,1,26.677-38.735Z" fill="#fff"/><path d="M34.579-29.074a5.9,5.9,0,0,1-5.9-5.9v-5.551a2.119,2.119,0,0,1,2.135-2.108,2.112,2.112,0,0,1,2.108,2.108v5.551a1.663,1.663,0,0,0,1.655,1.655,1.663,1.663,0,0,0,1.655-1.655v-5.551a2.112,2.112,0,0,1,2.108-2.108,2.119,2.119,0,0,1,2.135,2.108v5.551A5.9,5.9,0,0,1,34.579-29.074Z" fill="#fff"/><path d="M61.641-36.894v5.472a2.158,2.158,0,0,1-2.135,2.134,2.159,2.159,0,0,1-2.135-2.134v-5.472a1.617,1.617,0,0,0-1.627-1.628,1.635,1.635,0,0,0-1.628,1.628v5.472a2.141,2.141,0,0,1-2.135,2.134,2.159,2.159,0,0,1-2.136-2.134v-5.472a1.635,1.635,0,0,0-1.628-1.628,1.618,1.618,0,0,0-1.628,1.628v5.472a2.141,2.141,0,0,1-2.135,2.134,2.136,2.136,0,0,1-2.108-2.134V-40.6a2,2,0,0,1,2-2.028,1.938,1.938,0,0,1,1.28.48,5.622,5.622,0,0,1,2.589-.614A6.014,6.014,0,0,1,51.981-41.4a6,6,0,0,1,3.763-1.361A5.911,5.911,0,0,1,61.641-36.894Z" fill="#fff"/><path d="M82.807-36.894v5.472a2.158,2.158,0,0,1-2.135,2.134,2.159,2.159,0,0,1-2.135-2.134v-5.472a1.617,1.617,0,0,0-1.627-1.628,1.635,1.635,0,0,0-1.628,1.628v5.472a2.141,2.141,0,0,1-2.135,2.134,2.159,2.159,0,0,1-2.136-2.134v-5.472a1.635,1.635,0,0,0-1.628-1.628,1.618,1.618,0,0,0-1.628,1.628v5.472a2.141,2.141,0,0,1-2.135,2.134,2.136,2.136,0,0,1-2.108-2.134V-40.6a2,2,0,0,1,2-2.028,1.938,1.938,0,0,1,1.28.48,5.622,5.622,0,0,1,2.589-.614A6.014,6.014,0,0,1,73.147-41.4a6.007,6.007,0,0,1,3.763-1.361A5.911,5.911,0,0,1,82.807-36.894Z" fill="#fff"/><path d="M86.813-29.288a2.141,2.141,0,0,1-2.135-2.134v-9.235a2.142,2.142,0,0,1,2.135-2.135,2.142,2.142,0,0,1,2.136,2.135v9.235A2.142,2.142,0,0,1,86.813-29.288Z" fill="#fff"/><path d="M100.771-31.369a7.124,7.124,0,0,1-9.154.987,2.128,2.128,0,0,1-.561-2.962,2.141,2.141,0,0,1,1.6-.934,5.281,5.281,0,0,1,2.134.693,2.5,2.5,0,0,0,2.749-.586,1.861,1.861,0,0,0-.587-2.963c-.96-.56-2.881-.747-4.3-2.161A5.682,5.682,0,0,1,91-43.378a5.749,5.749,0,0,1,3.016-4.965,6.488,6.488,0,0,1,6.458.027,2.189,2.189,0,0,1,.774,2.936c-.64,1.014-1.735,1.227-3.069.693-1.628-.667-3.362.561-2.855,1.842.426,1.094,2.535,1.388,3.6,1.922a6.275,6.275,0,0,1,3.363,5.017A5.979,5.979,0,0,1,100.771-31.369Z" fill="#fff"/><path d="M116.037-36.867v5.445a2.141,2.141,0,0,1-2.134,2.134,2.142,2.142,0,0,1-2.136-2.134v-5.445a1.663,1.663,0,0,0-1.654-1.655,1.658,1.658,0,0,0-1.628,1.655v5.445a2.141,2.141,0,0,1-2.135,2.134,2.147,2.147,0,0,1-2.162-2.134V-44.9a2.153,2.153,0,0,1,2.162-2.162,2.147,2.147,0,0,1,2.135,2.162v2.322a6.664,6.664,0,0,1,1.628-.214A5.912,5.912,0,0,1,116.037-36.867Z" fill="#fff"/><path d="M128.369-34.358h-7.1a3.8,3.8,0,0,0,5.1,1.121,1.8,1.8,0,0,1,2.482.64,1.849,1.849,0,0,1-.641,2.509,7.559,7.559,0,0,1-3.816,1.014,7.17,7.17,0,0,1-6.539-3.95,6.93,6.93,0,0,1-.08-5.551,6.77,6.77,0,0,1,6.272-4.163A6.8,6.8,0,0,1,130.8-36.76C130.958-35.159,129.89-34.358,128.369-34.358ZM126.742-37.4a2.819,2.819,0,0,0-2.723-1.975A2.842,2.842,0,0,0,121.3-37.4Z" fill="#fff"/><path d="M134.668-29.288a2.141,2.141,0,0,1-2.134-2.134V-44.9a2.141,2.141,0,0,1,2.134-2.135A2.142,2.142,0,0,1,136.8-44.9v13.478A2.142,2.142,0,0,1,134.668-29.288Z" fill="#fff"/><path d="M146.6-31.422a2.142,2.142,0,0,1-2.136,2.134h-.4a5.37,5.37,0,0,1-5.391-5.577V-44.74a2.142,2.142,0,0,1,2.135-2.135,2.142,2.142,0,0,1,2.136,2.135v2.109h1.948a1.857,1.857,0,0,1,1.868,1.868,1.851,1.851,0,0,1-1.868,1.841h-1.948v4.057a1.158,1.158,0,0,0,1.12,1.307h.4A2.142,2.142,0,0,1,146.6-31.422Z" fill="#fff"/><path d="M158.556-34.358h-7.1a3.8,3.8,0,0,0,5.1,1.121,1.8,1.8,0,0,1,2.482.64,1.849,1.849,0,0,1-.64,2.509,7.563,7.563,0,0,1-3.817,1.014,7.171,7.171,0,0,1-6.539-3.95,6.934,6.934,0,0,1-.08-5.551,6.771,6.771,0,0,1,6.273-4.163,6.8,6.8,0,0,1,6.752,5.978C161.144-35.159,160.077-34.358,158.556-34.358ZM156.928-37.4a2.817,2.817,0,0,0-2.723-1.975,2.841,2.841,0,0,0-2.721,1.975Z" fill="#fff"/><path d="M170.887-40.5a2.2,2.2,0,0,1-2.242,2.029,1.687,1.687,0,0,0-1.708,1.628V-31.4a2.1,2.1,0,0,1-2.109,2.108A2.1,2.1,0,0,1,162.72-31.4V-40.63a2,2,0,0,1,2-2,2.022,2.022,0,0,1,1.334.506,6.3,6.3,0,0,1,2.829-.586A2.083,2.083,0,0,1,170.887-40.5Z" fill="#fff"/><path d="M88.665-48.487a1.378,1.378,0,0,0-1.852.137,1.377,1.377,0,0,0-1.851-.137,1.384,1.384,0,0,0-.1,2.024l1.6,1.635a.481.481,0,0,0,.344.145.477.477,0,0,0,.344-.144l1.605-1.635A1.385,1.385,0,0,0,88.665-48.487Z" fill="#fff"/><path d="M119.05-45.283a2,2,0,0,1-1.872-1.3,2,2,0,0,1,1.167-2.576l22.132-8.334a9.839,9.839,0,0,1,7.035.031l20.508,8.322a2,2,0,0,1,1.1,2.605,2,2,0,0,1-2.6,1.1l-20.478-8.31a5.751,5.751,0,0,0-4.15-.006l-22.133,8.334A1.982,1.982,0,0,1,119.05-45.283Z" fill="url(#a)"/><path d="M57.863-17.019A42.608,42.608,0,0,1,44.954-18.91c-15.457-4.915-34.176.918-34.364.977a1.922,1.922,0,0,1-2.416-1.323,2.012,2.012,0,0,1,1.278-2.5c.81-.258,20.018-6.263,36.639-.978,14.934,4.748,31.521-2,31.687-2.065a1.913,1.913,0,0,1,2.514,1.111,2.024,2.024,0,0,1-1.073,2.6A61.145,61.145,0,0,1,57.863-17.019Z" fill="url(#b)"/></g></svg>