<svg xmlns="http://www.w3.org/2000/svg" width="20.509" height="17.95" viewBox="0 0 20.509 17.95"><path d="M18.362,33.273a6.034,6.034,0,0,0-8.107.6,6.029,6.029,0,0,0-8.107-.6,6.061,6.061,0,0,0-.425,8.86l7.026,7.158a2.1,2.1,0,0,0,3.012,0l7.026-7.158A6.065,6.065,0,0,0,18.362,33.273Zm-.945,7.511L10.39,47.941a.165.165,0,0,1-.272,0L3.092,40.783a4.131,4.131,0,0,1,.292-6.036,4.061,4.061,0,0,1,5.468.421l1.4,1.43,1.4-1.43a4.059,4.059,0,0,1,5.468-.425,4.149,4.149,0,0,1,.292,6.04Z" transform="translate(0 -31.978)" fill="#fff"/></svg>