<svg xmlns="http://www.w3.org/2000/svg" xmlns:xlink="http://www.w3.org/1999/xlink" width="301" height="295.98" viewBox="0 0 301 295.98"><defs><linearGradient id="a" y1="0.5" x2="1" y2="0.648" gradientUnits="objectBoundingBox"><stop offset="0" stop-color="#00e6ff"/><stop offset="1" stop-color="#00b7ff"/></linearGradient><filter id="b" x="0" y="0" width="301" height="295.98" filterUnits="userSpaceOnUse"><feOffset input="SourceAlpha"/><feGaussianBlur stdDeviation="25" result="c"/><feFlood flood-color="#00b7ff" flood-opacity="0.502"/><feComposite operator="in" in2="c"/><feComposite in="SourceGraphic"/></filter></defs><g transform="translate(75 75)"><g transform="matrix(1, 0, 0, 1, -75, -75)" filter="url(#b)"><path d="M57,1.205C105.207-.181,151,33.579,151,75s-13.886,70.6-67.529,72.094S0,116.421,0,75,8.788,2.591,57,1.205Z" transform="translate(75 73.84)" fill="url(#a)"/></g><g transform="translate(42.373 42)" opacity="0.5"><ellipse cx="31.916" cy="29.456" rx="31.916" ry="29.456" transform="translate(0.583 1.547)" fill="none" stroke="#000" stroke-miterlimit="10" stroke-width="5.076"/><path d="M339.794,178.692a13.482,13.482,0,0,0-17.975-.891,11.127,11.127,0,0,0-.965,16.592" transform="translate(-317.596 -174.793)" fill="none" stroke="#000" stroke-miterlimit="10" stroke-width="5.076"/><path d="M348.679,178.692a13.483,13.483,0,0,1,17.975-.891,11.127,11.127,0,0,1,.966,16.592" transform="translate(-305.878 -174.793)" fill="none" stroke="#000" stroke-miterlimit="10" stroke-width="5.076"/><ellipse cx="11.993" cy="10.115" rx="11.993" ry="10.115" transform="translate(20.507 31.024)" fill="none" stroke="#000" stroke-miterlimit="10" stroke-width="3.638"/><ellipse cx="4.581" cy="3.864" rx="4.581" ry="3.864" transform="translate(27.919 34.188)"/><path d="M340.125,186.845a3.841,3.841,0,0,0-4.886,1.705,3.781,3.781,0,1,0-3.885,6.484l5.5,3.244a1.342,1.342,0,0,0,1.853-.494l3.14-5.559A3.86,3.86,0,0,0,340.125,186.845Z" transform="translate(-313.061 -170.308)"/><path d="M355.726,189.688a3.841,3.841,0,0,0-5.085-.966,3.781,3.781,0,1,0-6.607,3.672l3.141,5.559a1.34,1.34,0,0,0,1.852.5l5.5-3.243A3.862,3.862,0,0,0,355.726,189.688Z" transform="translate(-307.669 -170.243)"/></g></g></svg>