<svg xmlns="http://www.w3.org/2000/svg" width="35.745" height="30" viewBox="0 0 35.745 30"><path d="M34.787,72.468H.957A.957.957,0,0,1,0,71.511V68.957A.957.957,0,0,1,.957,68h33.83a.957.957,0,0,1,.957.957v2.553A.957.957,0,0,1,34.787,72.468Zm0,12.766H.957A.957.957,0,0,1,0,84.277V81.723a.957.957,0,0,1,.957-.957h33.83a.957.957,0,0,1,.957.957v2.553A.957.957,0,0,1,34.787,85.234Zm0,12.766H.957A.957.957,0,0,1,0,97.043V94.489a.957.957,0,0,1,.957-.957h33.83a.957.957,0,0,1,.957.957v2.553A.957.957,0,0,1,34.787,98Z" transform="translate(0 -68)" fill="#fff"/></svg>