<svg xmlns="http://www.w3.org/2000/svg" width="58.5" height="51.188" viewBox="0 0 58.5 51.188"><path d="M53.016,57.594H43.875V50.281a7.319,7.319,0,0,1,7.313-7.312H52.1a2.736,2.736,0,0,0,2.742-2.742V34.742A2.736,2.736,0,0,0,52.1,32h-.914A18.276,18.276,0,0,0,32.906,50.281V77.7a5.486,5.486,0,0,0,5.484,5.484H53.016A5.486,5.486,0,0,0,58.5,77.7V63.078A5.486,5.486,0,0,0,53.016,57.594Zm-32.906,0H10.969V50.281a7.319,7.319,0,0,1,7.313-7.312H19.2a2.736,2.736,0,0,0,2.742-2.742V34.742A2.736,2.736,0,0,0,19.2,32h-.914A18.276,18.276,0,0,0,0,50.281V77.7a5.486,5.486,0,0,0,5.484,5.484H20.109A5.486,5.486,0,0,0,25.594,77.7V63.078A5.486,5.486,0,0,0,20.109,57.594Z" transform="translate(0 -32)" fill="#fff" opacity="0.15"/></svg>